<?xml version="1.0" encoding="utf-8"?>
<!-- Generator: Adobe Illustrator 27.5.0, SVG Export Plug-In . SVG Version: 6.00 Build 0)  -->
<svg version="1.1" id="Layer_1" xmlns="http://www.w3.org/2000/svg" xmlns:xlink="http://www.w3.org/1999/xlink" x="0px" y="0px"
	 viewBox="0 0 373.3 499" style="enable-background:new 0 0 373.3 499;" xml:space="preserve">
<style type="text/css">
	.st0{fill:#697683;}
	@media (prefers-color-scheme: dark) {
		.st0{fill:#ffffff;}
	}
</style>
<path class="st0" d="M372.3,236.9c-4.2-24.8-23.2-124.7-27.9-148.5c-0.2-1.1-0.3-1.3-0.8-1.7c-1.6-1.6-6.4-2.8-12.1-2.8
	s-10.5,1.2-12.1,2.8c-0.4,0.4-0.5,0.6-0.7,1.7c-3.3,15.7-17.8,96.5-24.5,125.5c-2.9,12.4-7.8,19-23.5,19c-17.3,0-26.5-8-29.7-26.5
	c-5.6-32.1-26-167.8-32.3-198.9c-0.3-1.6-0.5-2.7-3.4-4.2c-3.9-2-10.8-3.3-18.7-3.3c-7.9,0-14.8,1.3-18.7,3.3
	c-2.9,1.5-3.1,2.6-3.4,4.2c-6.3,31.1-26.7,166.8-32.3,198.9c-3.2,18.5-12.4,26.5-29.7,26.5c-15.7,0-20.6-6.5-23.5-19
	c-6.8-29.1-21.3-109.8-24.5-125.5c-0.2-1.1-0.3-1.3-0.7-1.7c-1.6-1.6-6.4-2.8-12.1-2.8s-10.5,1.2-12.1,2.8c-0.4,0.4-0.5,0.6-0.8,1.7
	C24.1,112.2,5.2,212.1,1,236.9c-0.6,3.6-1,7.7-1,11.9c0,4.2,0.4,8.3,1,11.9c4.2,24.8,23.2,124.7,27.9,148.5c0.2,1.1,0.3,1.3,0.8,1.7
	c1.6,1.6,6.4,2.8,12.1,2.8s10.5-1.2,12.1-2.8c0.4-0.4,0.5-0.6,0.7-1.7c3.3-15.7,17.8-96.5,24.5-125.5c2.9-12.4,7.8-19,23.5-19
	c17.3,0,26.5,8,29.7,26.5c5.6,32.1,26,167.8,32.3,198.9c0.3,1.6,0.5,2.7,3.4,4.2c3.9,2,10.8,3.3,18.7,3.3c7.9,0,14.8-1.3,18.7-3.3
	c2.9-1.5,3.1-2.6,3.4-4.2c6.3-31.1,26.7-166.8,32.3-198.9c3.2-18.5,12.4-26.5,29.7-26.5c15.7,0,20.6,6.5,23.5,19
	c6.8,29.1,21.3,109.8,24.5,125.5c0.2,1.1,0.3,1.3,0.7,1.7c1.6,1.6,6.4,2.8,12.1,2.8s10.5-1.2,12.1-2.8c0.4-0.4,0.5-0.6,0.8-1.7
	c4.7-23.7,23.7-123.7,27.9-148.5c0.6-3.6,1-7.7,1-11.9C373.2,244.6,372.9,240.5,372.3,236.9z"/>
</svg>
