<?xml version="1.0" encoding="utf-8"?>
<!-- Generator: Adobe Illustrator 27.2.0, SVG Export Plug-In . SVG Version: 6.00 Build 0)  -->
<svg version="1.1" id="Layer_1" xmlns="http://www.w3.org/2000/svg" xmlns:xlink="http://www.w3.org/1999/xlink" x="0px" y="0px"
	 viewBox="0 0 792 612" style="enable-background:new 0 0 792 612;" xml:space="preserve">
<style type="text/css">
	.st0{fill:#414042;}
	.st1{fill:#EA8B43;}
</style>
<g>
	<path class="st0" d="M337.5,295.4h3.4l9.1,20.8h-3.8l-2.1-5h-9.8l-2.1,5h-3.7L337.5,295.4z M342.7,308l-3.6-8.3l-3.5,8.3H342.7z"/>
	<path class="st0" d="M352.2,308.5L352.2,308.5c0-4.5,3.4-8.2,8.1-8.2c3,0,4.8,1.1,6.2,2.7l-2.2,2.4c-1.1-1.1-2.2-1.9-4-1.9
		c-2.6,0-4.5,2.2-4.5,5v0.1c0,2.8,1.9,5,4.7,5c1.7,0,2.9-0.8,4-1.9l2.2,2.1c-1.5,1.7-3.3,2.9-6.4,2.9
		C355.6,316.6,352.2,313,352.2,308.5z"/>
	<path class="st0" d="M370.6,311.9v-8.2h-2v-3.1h2v-4.3h3.6v4.3h4.2v3.1h-4.2v7.6c0,1.4,0.7,1.9,1.9,1.9c0.8,0,1.5-0.2,2.2-0.5v2.9
		c-0.9,0.5-1.9,0.8-3.2,0.8C372.5,316.5,370.6,315.4,370.6,311.9z"/>
	<path class="st0" d="M382,294.9h3.8v3.4H382V294.9z M382.2,300.7h3.6v15.6h-3.6V300.7z"/>
	<path class="st0" d="M388.9,300.7h3.8l4.2,11.4l4.2-11.4h3.7l-6.4,15.7h-3.2L388.9,300.7z"/>
	<path class="st0" d="M407.1,308.5L407.1,308.5c0-4.5,3.2-8.2,7.6-8.2c5,0,7.5,3.9,7.5,8.4c0,0.3,0,0.6-0.1,1h-11.4
		c0.4,2.5,2.2,4,4.5,4c1.7,0,3-0.6,4.2-1.9l2.1,1.9c-1.5,1.8-3.5,2.9-6.4,2.9C410.6,316.6,407.1,313.3,407.1,308.5z M418.7,307.4
		c-0.2-2.3-1.6-4.1-4-4.1c-2.2,0-3.7,1.7-4,4.1H418.7z"/>
	<path class="st0" d="M426.5,295.6h8.9c2.5,0,4.6,0.8,5.9,2.1c1,1,1.6,2.4,1.6,4.1v0.1c0,3.4-2.4,5.4-5.6,6l6.3,8.4h-2.9l-6-8h-0.1
		h-5.8v8h-2.3V295.6z M435.1,306.1c3.1,0,5.3-1.6,5.3-4.2v-0.1c0-2.5-1.9-4.1-5.3-4.1h-6.4v8.4H435.1z"/>
	<path class="st0" d="M454.1,314.6c2.1,0,3.6-0.9,4.8-2.2l1.4,1.3c-1.5,1.7-3.4,2.9-6.3,2.9c-4.2,0-7.6-3.2-7.6-8c0-4.4,3.1-8,7.3-8
		c4.5,0,7.1,3.6,7.1,8.1c0,0.2,0,0.4,0,0.8h-12.1C449.1,312.8,451.5,314.6,454.1,314.6z M458.6,307.7c-0.3-2.8-1.9-5.1-4.9-5.1
		c-2.6,0-4.6,2.2-5,5.1H458.6z"/>
	<path class="st0" d="M464.9,301h2.3v3.1c1.2-1.8,3-3.4,5.8-3.4c3.7,0,7.3,2.9,7.3,7.9v0.1c0,5-3.6,7.9-7.3,7.9
		c-2.8,0-4.7-1.5-5.8-3.2v7.6h-2.3V301z M478,308.7L478,308.7c0-3.7-2.5-6-5.4-6c-2.8,0-5.5,2.4-5.5,5.9v0.1c0,3.5,2.7,5.9,5.5,5.9
		C475.5,314.5,478,312.3,478,308.7z"/>
	<path class="st0" d="M483.5,308.7L483.5,308.7c0-4.4,3.4-8,8-8c4.6,0,7.9,3.6,7.9,7.9v0.1c0,4.3-3.4,8-8,8
		C486.9,316.6,483.5,313,483.5,308.7z M497.1,308.7L497.1,308.7c0-3.3-2.4-6-5.7-6c-3.3,0-5.6,2.7-5.6,5.9v0.1
		c0,3.3,2.4,5.9,5.6,5.9C494.8,314.6,497.1,311.9,497.1,308.7z"/>
	<path class="st0" d="M503.5,301h2.3v4c1.1-2.5,3.3-4.4,6.2-4.2v2.4h-0.2c-3.3,0-6,2.4-6,7v6.1h-2.3V301z"/>
	<path class="st0" d="M516.3,312.2V303h-2.1v-2h2.1v-4.6h2.3v4.6h4.8v2h-4.8v8.9c0,1.9,1,2.5,2.6,2.5c0.8,0,1.4-0.1,2.2-0.5v1.9
		c-0.8,0.4-1.7,0.6-2.7,0.6C518.1,316.5,516.3,315.3,516.3,312.2z"/>
	<path class="st0" d="M526.1,314.3l1.2-1.6c1.7,1.2,3.5,1.9,5.3,1.9c1.8,0,3.2-0.9,3.2-2.4v-0.1c0-1.5-1.8-2.1-3.8-2.7
		c-2.4-0.7-5-1.5-5-4.3v-0.1c0-2.6,2.2-4.4,5.2-4.4c1.9,0,3.9,0.6,5.5,1.7l-1,1.7c-1.4-0.9-3-1.5-4.5-1.5c-1.8,0-2.9,0.9-2.9,2.2
		v0.1c0,1.4,1.9,2,3.9,2.6c2.4,0.7,4.9,1.6,4.9,4.4v0.1c0,2.9-2.4,4.6-5.4,4.6C530.3,316.5,527.8,315.7,526.1,314.3z"/>
</g>
<g>
	<path class="st1" d="M291,303.1c0.4-3.8-0.4-6.7-0.9-7.8c-0.1-0.3-0.2-0.5-0.2-0.5v0l-7.8-18.6c-0.3-0.8-1.1-1.4-2-1.4
		c-0.9,0-1.7,0.5-2,1.4l-24.4,58.3c-0.4,0.9-0.1,2,0.7,2.6c0.4,0.3,0.9,0.5,1.3,0.5c0.5,0,1-0.2,1.4-0.5l24.3-18.8
		c3.7-2.9,6.1-5.9,7.6-8.7C290.1,307.3,290.7,305.1,291,303.1z"/>
	<path class="st1" d="M306.5,334.4l-7.5-17.6c-0.3-0.6-0.8-1.1-1.5-1.3c-0.7-0.2-1.4,0-1.9,0.4l-5.1,4.3c0,0-2.2,1.9-2,4.5
		c0,0.1,0,0.2,0,0.4c0.3,1.7,1.5,3.6,4.7,5.6l10.1,6.4c0.4,0.2,0.8,0.3,1.2,0.3c0.5,0,1-0.2,1.4-0.5
		C306.6,336.3,306.8,335.3,306.5,334.4z"/>
</g>
</svg>
