<svg xmlns="http://www.w3.org/2000/svg" xmlns:xlink="http://www.w3.org/1999/xlink" version="1.1" id="Layer_1" x="0px" y="0px" style="enable-background:new 0 0 792 612;" xml:space="preserve" viewBox="342.35 243.4 106.43 125.4">
<style type="text/css">
	.st0{fill:#EA8B43;}
</style>
<g>
	<path class="st0" d="M417.4,300c0.9-7.6-0.9-13.4-1.8-15.7c-0.3-0.7-0.4-1-0.4-1.1v0l-15.5-37.1c-0.7-1.6-2.3-2.7-4.1-2.7   c-1.8,0-3.4,1.1-4.1,2.7l-48.8,116.5c-0.8,1.9-0.2,4,1.4,5.2c0.8,0.6,1.7,0.9,2.7,0.9c1,0,1.9-0.3,2.7-0.9l48.6-37.5   c7.5-5.8,12.2-11.7,15.2-17.3C415.7,308.4,416.9,304,417.4,300z"/>
	<path class="st0" d="M448.4,362.7l-14.9-35.2c-0.5-1.3-1.7-2.2-3-2.6c-1.4-0.3-2.8,0-3.9,0.9l-10.3,8.5c0,0-4.4,3.7-4,9.1   c0,0.2,0,0.5,0.1,0.7c0.5,3.3,3,7.2,9.4,11.2l20.2,12.8c0.7,0.5,1.6,0.7,2.4,0.7c1,0,2-0.4,2.9-1   C448.7,366.5,449.2,364.5,448.4,362.7z"/>
</g>
</svg>