<svg xmlns="http://www.w3.org/2000/svg" xml:space="preserve" id="Layer_1" x="0" y="0" style="enable-background:new 0 0 792 612" version="1.1" viewBox="253.52 274.8 284.58 62.8"><style>.st0{fill:#414042}.st1{fill:#ea8b43}</style><path d="M337.5 295.4h3.4l9.1 20.8h-3.8l-2.1-5h-9.8l-2.1 5h-3.7l9-20.8zm5.2 12.6-3.6-8.3-3.5 8.3h7.1zM352.2 308.5c0-4.5 3.4-8.2 8.1-8.2 3 0 4.8 1.1 6.2 2.7l-2.2 2.4c-1.1-1.1-2.2-1.9-4-1.9-2.6 0-4.5 2.2-4.5 5v.1c0 2.8 1.9 5 4.7 5 1.7 0 2.9-.8 4-1.9l2.2 2.1c-1.5 1.7-3.3 2.9-6.4 2.9-4.7-.1-8.1-3.7-8.1-8.2zM370.6 311.9v-8.2h-2v-3.1h2v-4.3h3.6v4.3h4.2v3.1h-4.2v7.6c0 1.4.7 1.9 1.9 1.9.8 0 1.5-.2 2.2-.5v2.9c-.9.5-1.9.8-3.2.8-2.6.1-4.5-1-4.5-4.5zM382 294.9h3.8v3.4H382v-3.4zm.2 5.8h3.6v15.6h-3.6v-15.6zM388.9 300.7h3.8l4.2 11.4 4.2-11.4h3.7l-6.4 15.7h-3.2l-6.3-15.7zM407.1 308.5c0-4.5 3.2-8.2 7.6-8.2 5 0 7.5 3.9 7.5 8.4 0 .3 0 .6-.1 1h-11.4c.4 2.5 2.2 4 4.5 4 1.7 0 3-.6 4.2-1.9l2.1 1.9c-1.5 1.8-3.5 2.9-6.4 2.9-4.5 0-8-3.3-8-8.1zm11.6-1.1c-.2-2.3-1.6-4.1-4-4.1-2.2 0-3.7 1.7-4 4.1h8zM426.5 295.6h8.9c2.5 0 4.6.8 5.9 2.1 1 1 1.6 2.4 1.6 4.1v.1c0 3.4-2.4 5.4-5.6 6l6.3 8.4h-2.9l-6-8H428.8v8h-2.3v-20.7zm8.6 10.5c3.1 0 5.3-1.6 5.3-4.2v-.1c0-2.5-1.9-4.1-5.3-4.1h-6.4v8.4h6.4zM454.1 314.6c2.1 0 3.6-.9 4.8-2.2l1.4 1.3c-1.5 1.7-3.4 2.9-6.3 2.9-4.2 0-7.6-3.2-7.6-8 0-4.4 3.1-8 7.3-8 4.5 0 7.1 3.6 7.1 8.1v.8h-12.1c.4 3.3 2.8 5.1 5.4 5.1zm4.5-6.9c-.3-2.8-1.9-5.1-4.9-5.1-2.6 0-4.6 2.2-5 5.1h9.9zM464.9 301h2.3v3.1c1.2-1.8 3-3.4 5.8-3.4 3.7 0 7.3 2.9 7.3 7.9v.1c0 5-3.6 7.9-7.3 7.9-2.8 0-4.7-1.5-5.8-3.2v7.6h-2.3v-20zm13.1 7.7c0-3.7-2.5-6-5.4-6-2.8 0-5.5 2.4-5.5 5.9v.1c0 3.5 2.7 5.9 5.5 5.9 2.9-.1 5.4-2.3 5.4-5.9zM483.5 308.7c0-4.4 3.4-8 8-8s7.9 3.6 7.9 7.9v.1c0 4.3-3.4 8-8 8-4.5-.1-7.9-3.7-7.9-8zm13.6 0c0-3.3-2.4-6-5.7-6-3.3 0-5.6 2.7-5.6 5.9v.1c0 3.3 2.4 5.9 5.6 5.9 3.4 0 5.7-2.7 5.7-5.9zM503.5 301h2.3v4c1.1-2.5 3.3-4.4 6.2-4.2v2.4h-.2c-3.3 0-6 2.4-6 7v6.1h-2.3V301zM516.3 312.2V303h-2.1v-2h2.1v-4.6h2.3v4.6h4.8v2h-4.8v8.9c0 1.9 1 2.5 2.6 2.5.8 0 1.4-.1 2.2-.5v1.9c-.8.4-1.7.6-2.7.6-2.6.1-4.4-1.1-4.4-4.2zM526.1 314.3l1.2-1.6c1.7 1.2 3.5 1.9 5.3 1.9 1.8 0 3.2-.9 3.2-2.4v-.1c0-1.5-1.8-2.1-3.8-2.7-2.4-.7-5-1.5-5-4.3v-.1c0-2.6 2.2-4.4 5.2-4.4 1.9 0 3.9.6 5.5 1.7l-1 1.7c-1.4-.9-3-1.5-4.5-1.5-1.8 0-2.9.9-2.9 2.2v.1c0 1.4 1.9 2 3.9 2.6 2.4.7 4.9 1.6 4.9 4.4v.1c0 2.9-2.4 4.6-5.4 4.6-2.4 0-4.9-.8-6.6-2.2z" class="st0"/><path d="M291 303.1c.4-3.8-.4-6.7-.9-7.8-.1-.3-.2-.5-.2-.5l-7.8-18.6c-.3-.8-1.1-1.4-2-1.4-.9 0-1.7.5-2 1.4l-24.4 58.3c-.4.9-.1 2 .7 2.6.4.3.9.5 1.3.5.5 0 1-.2 1.4-.5l24.3-18.8c3.7-2.9 6.1-5.9 7.6-8.7 1.1-2.3 1.7-4.5 2-6.5zM306.5 334.4l-7.5-17.6c-.3-.6-.8-1.1-1.5-1.3-.7-.2-1.4 0-1.9.4l-5.1 4.3s-2.2 1.9-2 4.5v.4c.3 1.7 1.5 3.6 4.7 5.6l10.1 6.4c.4.2.8.3 1.2.3.5 0 1-.2 1.4-.5.7-.6.9-1.6.6-2.5z" class="st1"/></svg>