<svg xmlns="http://www.w3.org/2000/svg" xmlns:xlink="http://www.w3.org/1999/xlink" version="1.1" id="Layer_1" x="0px" y="0px" style="enable-background:new 0 0 792 612;" xml:space="preserve" viewBox="330.5 244.9 129.23 122.6">
<style type="text/css">
	.st0{fill:#D55D53;}
</style>
<g>
	<path class="st0" d="M407.5,279.8l9.1-30.5c0.2-0.8,0.1-1.7-0.4-2.4c-0.5-0.7-1.2-1.2-2.1-1.3c-3.1-0.4-6.3-0.7-9.5-0.7   c-31.9,0-62.6,22.4-71.5,52.2c-4.9,16.2-2.8,32.5,5.7,45.8c8.6,13.4,22.8,22.1,40,24.6c0,0,0,0,0,0c0.1,0,0.2,0,0.3,0   c1.3,0,2.5-0.8,2.8-2.1l4.1-13.9c6.4-21.1-6.2-30.5-5.6-30c-1.1-1-2-2-2.8-3.2c-2.6-4.1-3.2-9.1-1.7-14.2   c2.8-9.3,12.1-16.4,22-17.1c0,0,0,0,0,0C398.1,286.9,405.6,286.3,407.5,279.8z"/>
	<path class="st0" d="M442.4,259.4c-1.3-1-4.3-3.1-8.1-2.4c-4.4,0.9-5.7,5.4-6,6.6l-29.5,98.6c-0.3,1,0,2.1,0.7,2.9   c0.6,0.6,1.3,0.9,2.1,0.9c0.2,0,0.5,0,0.7-0.1c26-6.2,47.6-25.9,54.8-50.2C463.6,294.4,457.8,273.1,442.4,259.4z"/>
</g>
</svg>