<svg xmlns="http://www.w3.org/2000/svg" xmlns:xlink="http://www.w3.org/1999/xlink" version="1.1" id="Layer_1" x="0px" y="0px" style="enable-background:new 0 0 792 612;" xml:space="preserve" viewBox="236.72 275.5 318.68 61.3">
<style type="text/css">
	.st0{fill:#414042;}
	.st1{fill:#D55D53;}
</style>
<g>
	<path class="st0" d="M323.1,306L323.1,306c0-5.9,4.4-10.7,10.6-10.7c3.8,0,6.1,1.3,8.1,3.2l-2.3,2.7c-1.7-1.5-3.4-2.6-5.8-2.6   c-4,0-6.8,3.2-6.8,7.3v0.1c0,4,2.9,7.3,6.8,7.3c2.5,0,4.2-1,5.9-2.7l2.3,2.4c-2.2,2.2-4.5,3.7-8.4,3.7   C327.6,316.6,323.1,311.9,323.1,306z"/>
	<path class="st0" d="M344.5,308.5L344.5,308.5c0-4.5,3.5-8.2,8.3-8.2c4.8,0,8.3,3.6,8.3,8.1v0.1c0,4.4-3.5,8.1-8.3,8.1   C348.1,316.6,344.5,313,344.5,308.5z M357.6,308.5L357.6,308.5c0-2.8-2-5.1-4.8-5.1c-2.9,0-4.7,2.2-4.7,5v0.1c0,2.7,2,5,4.7,5   C355.8,313.5,357.6,311.2,357.6,308.5z"/>
	<path class="st0" d="M364.8,300.7h3.6v2.4c1-1.4,2.4-2.7,4.7-2.7c2.2,0,3.8,1.1,4.6,2.7c1.3-1.7,2.9-2.7,5.3-2.7   c3.4,0,5.5,2.2,5.5,6v9.9h-3.6v-8.8c0-2.5-1.2-3.8-3.2-3.8c-1.9,0-3.3,1.4-3.3,3.9v8.8h-3.6v-8.9c0-2.4-1.2-3.8-3.2-3.8   c-2,0-3.3,1.5-3.3,3.9v8.8h-3.6V300.7z"/>
	<path class="st0" d="M392.8,300.7h3.6v2.6c1.2-1.6,2.8-2.9,5.3-2.9c3.7,0,7.3,2.9,7.3,8.1v0.1c0,5.2-3.5,8.1-7.3,8.1   c-2.6,0-4.2-1.3-5.3-2.7v7.1h-3.6V300.7z M405.3,308.5L405.3,308.5c0-3.1-2-5-4.5-5c-2.4,0-4.5,2-4.5,5v0.1c0,3,2.1,5,4.5,5   C403.3,313.5,405.3,311.6,405.3,308.5z"/>
	<path class="st0" d="M411.7,308.5L411.7,308.5c0-4.5,3.5-8.2,8.3-8.2c4.8,0,8.3,3.6,8.3,8.1v0.1c0,4.4-3.5,8.1-8.3,8.1   C415.2,316.6,411.7,313,411.7,308.5z M424.8,308.5L424.8,308.5c0-2.8-2-5.1-4.8-5.1c-2.9,0-4.7,2.2-4.7,5v0.1c0,2.7,2,5,4.7,5   C422.9,313.5,424.8,311.2,424.8,308.5z"/>
	<path class="st0" d="M432,300.7h3.6v2.4c1-1.5,2.4-2.7,4.9-2.7c3.5,0,5.5,2.4,5.5,6v9.9h-3.6v-8.8c0-2.4-1.2-3.8-3.3-3.8   c-2.1,0-3.5,1.4-3.5,3.9v8.8H432V300.7z"/>
	<path class="st0" d="M449.4,308.5L449.4,308.5c0-4.5,3.2-8.2,7.6-8.2c5,0,7.5,3.9,7.5,8.4c0,0.3,0,0.6-0.1,1H453   c0.4,2.5,2.2,4,4.5,4c1.7,0,3-0.6,4.2-1.9l2.1,1.9c-1.5,1.8-3.5,2.9-6.4,2.9C452.9,316.6,449.4,313.3,449.4,308.5z M460.9,307.4   c-0.2-2.3-1.6-4.1-4-4.1c-2.2,0-3.7,1.7-4,4.1H460.9z"/>
	<path class="st0" d="M468.1,300.7h3.6v2.4c1-1.5,2.4-2.7,4.9-2.7c3.5,0,5.5,2.4,5.5,6v9.9h-3.6v-8.8c0-2.4-1.2-3.8-3.3-3.8   c-2.1,0-3.5,1.4-3.5,3.9v8.8h-3.6V300.7z"/>
	<path class="st0" d="M487.1,311.9v-8.2h-2v-3.1h2v-4.3h3.6v4.3h4.2v3.1h-4.2v7.6c0,1.4,0.7,1.9,1.9,1.9c0.8,0,1.5-0.2,2.2-0.5v2.9   c-0.9,0.5-1.9,0.8-3.2,0.8C489,316.5,487.1,315.4,487.1,311.9z"/>
	<path class="st0" d="M498.2,306L498.2,306c0-5.8,4.3-10.7,10.6-10.7c6.3,0,10.5,4.9,10.5,10.6c0,0,0,0,0,0.1   c0,5.7-4.3,10.7-10.6,10.7S498.2,311.7,498.2,306z M516.9,306L516.9,306c0-4.7-3.4-8.6-8.1-8.6c-4.7,0-8.1,3.8-8.1,8.5v0.1   c0,4.7,3.4,8.5,8.1,8.5C513.5,314.4,516.9,310.7,516.9,306z"/>
	<path class="st0" d="M523.8,301h2.3v2.7c1-1.7,2.6-3,5.2-3c3.7,0,5.8,2.5,5.8,6.1v9.5h-2.3v-8.9c0-2.8-1.5-4.6-4.2-4.6   c-2.6,0-4.6,1.9-4.6,4.8v8.7h-2.3V301z"/>
	<path class="st0" d="M548.7,314.6c2.1,0,3.6-0.9,4.8-2.2l1.4,1.3c-1.5,1.7-3.4,2.9-6.3,2.9c-4.2,0-7.6-3.2-7.6-8c0-4.4,3.1-8,7.3-8   c4.5,0,7.1,3.6,7.1,8.1c0,0.2,0,0.4,0,0.8h-12.1C543.7,312.8,546,314.6,548.7,314.6z M553.2,307.7c-0.3-2.8-1.9-5.1-4.9-5.1   c-2.6,0-4.6,2.2-5,5.1H553.2z"/>
</g>
<g>
	<path class="st1" d="M275.2,293l4.6-15.3c0.1-0.4,0-0.9-0.2-1.2c-0.2-0.4-0.6-0.6-1.1-0.7c-1.6-0.2-3.1-0.3-4.7-0.3   c-15.9,0-31.3,11.2-35.8,26.1c-2.4,8.1-1.4,16.2,2.8,22.9c4.3,6.7,11.4,11.1,20,12.3c0,0,0,0,0,0c0.1,0,0.1,0,0.2,0   c0.6,0,1.2-0.4,1.4-1.1l2.1-6.9c3.2-10.5-3.1-15.2-2.8-15c-0.5-0.5-1-1-1.4-1.6c-1.3-2-1.6-4.6-0.9-7.1c1.4-4.6,6-8.2,11-8.5   c0,0,0,0,0,0C270.5,296.5,274.3,296.2,275.2,293z"/>
	<path class="st1" d="M292.7,282.8c-0.6-0.5-2.2-1.6-4-1.2c-2.2,0.5-2.8,2.7-3,3.3l-14.7,49.3c-0.2,0.5,0,1.1,0.3,1.4   c0.3,0.3,0.7,0.5,1.1,0.5c0.1,0,0.2,0,0.3,0c13-3.1,23.8-13,27.4-25.1C303.3,300.3,300.4,289.6,292.7,282.8z"/>
</g>
</svg>