<?xml version="1.0" encoding="utf-8"?>
<!-- Generator: Adobe Illustrator 27.2.0, SVG Export Plug-In . SVG Version: 6.00 Build 0)  -->
<svg version="1.1" id="Layer_1" xmlns="http://www.w3.org/2000/svg" xmlns:xlink="http://www.w3.org/1999/xlink" x="0px" y="0px"
	 viewBox="0 0 792 612" style="enable-background:new 0 0 792 612;" xml:space="preserve">
<style type="text/css">
	.st0{fill:#577C9B;}
	.st1{fill:#414042;}
</style>
<g>
	<path class="st0" d="M242.5,267.9c0,0,46.2,21.7,17.8,48.5c0,0-29.1,31.8-18.9,6.3C255.6,287,235.8,264.1,242.5,267.9z"/>
	<path class="st0" d="M229.6,270.4c-2.6-5.3-3.2,52.4-3.2,52.4s0.5,7.2,6.2,2.1C239.4,318.7,236.1,283.5,229.6,270.4z"/>
</g>
<g>
	<path class="st1" d="M300.9,312h-7.6v-19.6h7.6c6.2,0,10.4,4.2,10.4,9.7v0.1C311.4,307.7,307.1,312,300.9,312z M306.8,302.2
		c0-3.5-2.4-5.9-5.9-5.9h-3.3v11.8h3.3C304.5,308.1,306.8,305.7,306.8,302.2L306.8,302.2z"/>
	<path class="st1" d="M322.1,312.3c-4.6,0-8.1-3.4-8.1-7.8v-0.1c0-4.3,3.5-7.8,8.1-7.8c4.6,0,8.1,3.4,8.1,7.8v0.1
		C330.3,308.8,326.8,312.3,322.1,312.3z M326.1,304.5c0-2.2-1.6-4.1-3.9-4.1c-2.4,0-3.9,1.9-3.9,4.1v0.1c0,2.2,1.6,4.1,3.9,4.1
		C324.6,308.6,326.1,306.7,326.1,304.5L326.1,304.5z"/>
	<path class="st1" d="M340.4,312.3c-4.5,0-7.8-3.5-7.8-7.8v-0.1c0-4.3,3.3-7.8,7.9-7.8c2.8,0,4.6,1,6,2.5l-2.6,2.8
		c-1-1-1.9-1.7-3.4-1.7c-2.1,0-3.6,1.9-3.6,4.1v0.1c0,2.3,1.5,4.1,3.8,4.1c1.4,0,2.4-0.6,3.4-1.6l2.5,2.5
		C345.1,311.1,343.4,312.3,340.4,312.3z"/>
	<path class="st1" d="M358.7,312v-2.1c-1,1.3-2.2,2.4-4.4,2.4c-3.2,0-5.1-2.1-5.1-5.6v-9.7h4.3v8.4c0,2,1,3.1,2.6,3.1s2.7-1,2.7-3.1
		v-8.4h4.3v15H358.7z"/>
	<path class="st1" d="M385.4,312v-8.4c0-2-0.9-3.1-2.5-3.1c-1.6,0-2.6,1-2.6,3.1v8.4h-4.3v-8.4c0-2-0.9-3.1-2.5-3.1
		c-1.6,0-2.6,1-2.6,3.1v8.4h-4.3v-15h4.3v2.1c1-1.3,2.3-2.4,4.4-2.4c2,0,3.4,0.9,4.2,2.4c1.3-1.5,2.9-2.4,4.9-2.4
		c3.2,0,5.1,1.9,5.1,5.5v9.8H385.4z"/>
	<path class="st1" d="M407.3,305.9h-10.4c0.4,1.9,1.8,2.9,3.7,2.9c1.4,0,2.5-0.4,3.6-1.5l2.4,2.2c-1.4,1.7-3.4,2.8-6.1,2.8
		c-4.5,0-7.8-3.2-7.8-7.8v-0.1c0-4.3,3.1-7.8,7.4-7.8c5,0,7.3,3.9,7.3,8.1v0.1C407.4,305.3,407.3,305.5,407.3,305.9z M400.1,300.1
		c-1.8,0-2.9,1.3-3.2,3.2h6.4C403,301.4,401.8,300.1,400.1,300.1z"/>
	<path class="st1" d="M420,312v-8.4c0-2-1-3.1-2.6-3.1s-2.7,1-2.7,3.1v8.4h-4.3v-15h4.3v2.1c1-1.3,2.2-2.4,4.4-2.4
		c3.2,0,5.1,2.1,5.1,5.6v9.7H420z"/>
	<path class="st1" d="M433,312.2c-2.6,0-4.4-1-4.4-4.5v-7.1h-1.8v-3.6h1.8v-3.8h4.3v3.8h3.5v3.6h-3.5v6.4c0,1,0.4,1.5,1.4,1.5
		c0.8,0,1.5-0.2,2.1-0.5v3.4C435.5,311.9,434.5,312.2,433,312.2z"/>
	<path class="st1" d="M447.5,301.1c4.4,1,6.4,2.5,6.4,5.6c0,3.4-2.8,5.6-6.7,5.6c-3.1,0-5.7-1-8-3.1l1.4-1.6c2,1.8,4,2.8,6.7,2.8
		c2.6,0,4.4-1.4,4.4-3.4c0-1.8-1-2.9-5.1-3.8c-4.5-1-6.6-2.4-6.6-5.7c0-3.1,2.7-5.4,6.4-5.4c2.9,0,4.9,0.8,6.9,2.4l-1.3,1.7
		c-1.8-1.5-3.6-2.1-5.7-2.1c-2.5,0-4.2,1.4-4.2,3.2C442.2,299.1,443.2,300.2,447.5,301.1z"/>
	<path class="st1" d="M464.6,312.3c-4.3,0-7.5-3.4-7.5-7.5c0-4.1,3.2-7.6,7.6-7.6c4.3,0,7.5,3.4,7.5,7.5S469,312.3,464.6,312.3z
		 M464.6,299.1c-3.1,0-5.3,2.5-5.3,5.6s2.3,5.7,5.3,5.7c3.1,0,5.3-2.5,5.3-5.6C470,301.6,467.7,299.1,464.6,299.1z"/>
	<path class="st1" d="M476.3,312v-20.4h2.2V312H476.3z"/>
	<path class="st1" d="M493.7,297.5h2.1V312h-2.1v-2.5c-1,1.6-2.5,2.8-5,2.8c-3.5,0-5.5-2.4-5.5-5.8v-9h2.2v8.5c0,2.7,1.5,4.4,4,4.4
		c2.5,0,4.3-1.8,4.3-4.5V297.5z"/>
	<path class="st1" d="M503.6,307.8c0,1.8,1,2.4,2.4,2.4c0.7,0,1.3-0.1,2.1-0.5v1.8c-0.8,0.4-1.6,0.6-2.6,0.6c-2.3,0-4.1-1.1-4.1-4.1
		v-8.7h-2v-1.9h2v-4.4h2.2v4.4h4.6v1.9h-4.6V307.8z"/>
	<path class="st1" d="M512.1,294.3v-2.4h2.5v2.4H512.1z M512.2,312v-14.5h2.2V312H512.2z"/>
	<path class="st1" d="M526,312.3c-4.3,0-7.5-3.4-7.5-7.5c0-4.1,3.2-7.6,7.6-7.6c4.3,0,7.5,3.4,7.5,7.5S530.4,312.3,526,312.3z
		 M526,299.1c-3.1,0-5.3,2.5-5.3,5.6s2.3,5.7,5.3,5.7c3.1,0,5.3-2.5,5.3-5.6C531.4,301.6,529,299.1,526,299.1z"/>
	<path class="st1" d="M539.6,312h-2.2v-14.5h2.2v2.5c1-1.6,2.5-2.8,5-2.8c3.5,0,5.5,2.4,5.5,5.8v9H548v-8.5c0-2.7-1.5-4.4-4-4.4
		c-2.5,0-4.3,1.8-4.3,4.5V312z"/>
	<path class="st1" d="M559.5,312.2c-2.1,0-4.4-0.8-6-2.1l1.1-1.5c1.6,1.2,3.3,1.8,5,1.8c1.7,0,3-0.9,3-2.3v-0.1c0-1.5-1.7-2-3.6-2.5
		c-2.3-0.6-4.8-1.4-4.8-4.1v-0.1c0-2.5,2.1-4.1,4.9-4.1c1.8,0,3.7,0.6,5.2,1.6l-1,1.6c-1.3-0.9-2.9-1.4-4.3-1.4
		c-1.7,0-2.8,0.9-2.8,2.1v0.1c0,1.4,1.8,1.9,3.7,2.5c2.2,0.7,4.6,1.5,4.6,4.1v0.1C564.7,310.6,562.4,312.2,559.5,312.2z"/>
</g>
</svg>
