<svg xmlns="http://www.w3.org/2000/svg" xmlns:xlink="http://www.w3.org/1999/xlink" version="1.1" id="Layer_1" x="0px" y="0px" style="enable-background:new 0 0 792 612;" xml:space="preserve" viewBox="303.58 275.81 187.62 60.57">
<style type="text/css">
	.st0{fill:#414042;}
	.st1{fill:#78995F;}
</style>
<g>
	<path class="st0" d="M389,313.2l2.2-2.6c2,1.7,4,2.7,6.5,2.7c2.2,0,3.7-1,3.7-2.6v-0.1c0-1.5-0.8-2.3-4.7-3.2   c-4.4-1.1-6.9-2.4-6.9-6.2v-0.1c0-3.5,3-6,7-6c3,0,5.4,0.9,7.5,2.6l-1.9,2.7c-1.9-1.4-3.7-2.1-5.6-2.1c-2.1,0-3.4,1.1-3.4,2.4v0.1   c0,1.6,0.9,2.3,4.9,3.2c4.4,1.1,6.6,2.6,6.6,6v0.1c0,3.9-3,6.2-7.4,6.2C394.4,316.5,391.5,315.4,389,313.2z"/>
	<path class="st0" d="M408.8,300.7h3.6v2.6c1.2-1.6,2.8-2.9,5.3-2.9c3.7,0,7.3,2.9,7.3,8.1v0.1c0,5.2-3.5,8.1-7.3,8.1   c-2.6,0-4.2-1.3-5.3-2.7v7.1h-3.6V300.7z M421.3,308.5L421.3,308.5c0-3.1-2-5-4.5-5c-2.4,0-4.5,2-4.5,5v0.1c0,3,2.1,5,4.5,5   C419.3,313.5,421.3,311.6,421.3,308.5z"/>
	<path class="st0" d="M428.6,300.7h3.6v3.5c1-2.3,2.8-3.9,5.5-3.8v3.8h-0.2c-3.1,0-5.3,2-5.3,6.2v5.9h-3.6V300.7z"/>
	<path class="st0" d="M439.9,308.5L439.9,308.5c0-4.5,3.2-8.2,7.6-8.2c5,0,7.5,3.9,7.5,8.4c0,0.3,0,0.6-0.1,1h-11.4   c0.4,2.5,2.2,4,4.5,4c1.7,0,3-0.6,4.2-1.9l2.1,1.9c-1.5,1.8-3.5,2.9-6.4,2.9C443.4,316.6,439.9,313.3,439.9,308.5z M451.5,307.4   c-0.2-2.3-1.6-4.1-4-4.1c-2.2,0-3.7,1.7-4,4.1H451.5z"/>
	<path class="st0" d="M468.1,316.2v-1.9c-1.1,1.3-2.7,2.2-5,2.2c-2.9,0-5.5-1.7-5.5-4.8v-0.1c0-3.5,2.7-5.1,6.3-5.1   c1.9,0,3.1,0.3,4.3,0.6V307c0-2.2-1.4-3.3-3.8-3.3c-1.7,0-3,0.4-4.5,1l-1-2.9c1.7-0.8,3.4-1.3,5.9-1.3c4.6,0,6.8,2.4,6.8,6.6v9.2   H468.1z M468.2,309.7c-0.9-0.4-2.2-0.6-3.6-0.6c-2.2,0-3.6,0.9-3.6,2.4v0.1c0,1.5,1.3,2.3,3,2.3c2.4,0,4.1-1.3,4.1-3.3V309.7z"/>
	<path class="st0" d="M475.1,308.5L475.1,308.5c0-5.2,3.5-8.1,7.2-8.1c2.6,0,4.2,1.3,5.3,2.7v-8.4h3.6v21.5h-3.6v-2.6   c-1.2,1.6-2.8,2.9-5.3,2.9C478.7,316.6,475.1,313.6,475.1,308.5z M487.7,308.5L487.7,308.5c0-3.1-2.1-5-4.5-5c-2.4,0-4.5,1.9-4.5,5   v0.1c0,3,2.1,5,4.5,5C485.6,313.5,487.7,311.5,487.7,308.5z"/>
</g>
<g>
	<path class="st1" d="M309.2,309.5c0.3,0.2,0.6,0.5,0.9,0.7c1.2,0.9,4.7,3,9.3,0.4l38.2-24.7c0.6-0.4,0.9-1,0.9-1.7   c0-0.7-0.4-1.3-1-1.7c-6.1-3.7-13.9-6.1-21.8-6.6c-7.7-0.5-22.3,0.9-28.9,11.5C299.9,298.4,305.7,306.2,309.2,309.5z"/>
	<path class="st1" d="M356.8,302.8c-0.3-0.2-0.5-0.5-0.8-0.7c-1.2-0.9-4.8-3.1-9.3-0.5l-38.2,24.7c-0.6,0.4-0.9,1-0.9,1.7   c0,0.7,0.4,1.3,1,1.7c6.1,3.7,13.9,6.1,21.8,6.6c7.7,0.5,22.3-0.9,28.9-11.5C366.1,313.9,360.3,306.1,356.8,302.8z"/>
</g>
</svg>