<?xml version="1.0" encoding="utf-8"?>
<!-- Generator: Adobe Illustrator 27.2.0, SVG Export Plug-In . SVG Version: 6.00 Build 0)  -->
<svg version="1.1" id="Layer_1" xmlns="http://www.w3.org/2000/svg" xmlns:xlink="http://www.w3.org/1999/xlink" x="0px" y="0px"
	 viewBox="0 0 792 612" style="enable-background:new 0 0 792 612;" xml:space="preserve">
<style type="text/css">
	.st0{fill:#44ABC5;}
</style>
<g>
	<path class="st0" d="M407.9,348c0.3,1.2,0.6,2.3,1.1,3.5L407.9,348z"/>
	<path class="st0" d="M421.1,246.4c-0.7-1.1-2-1.8-3.3-1.8h-89.2c-1.3,0-2.5,0.6-3.3,1.7c-0.7,1.1-0.9,2.5-0.4,3.7l43.7,115
		c0.6,1.5,2.1,2.6,3.7,2.6c0,0,0,0,0,0c1.6,0,3.1-1,3.7-2.5l45.5-115C422,248.9,421.8,247.5,421.1,246.4z"/>
	<path class="st0" d="M465.9,246.4c-0.7-1.1-2-1.8-3.3-1.8h-20.8c-1.7,0-3.2,1-3.7,2.6l-27.8,73.5l0,0c0,0-5.4,14.5-2.2,27.3
		l1.1,3.5c0,0,0,0,0,0l4.2,13.4c0.5,1.6,2,2.7,3.7,2.8c0.1,0,0.1,0,0.1,0c1.6,0,3.1-1,3.7-2.5l45.5-115
		C466.8,248.9,466.6,247.5,465.9,246.4z"/>
</g>
</svg>
