<?xml version="1.0" encoding="utf-8"?>
<!-- Generator: Adobe Illustrator 27.2.0, SVG Export Plug-In . SVG Version: 6.00 Build 0)  -->
<svg version="1.1" id="Layer_1" xmlns="http://www.w3.org/2000/svg" xmlns:xlink="http://www.w3.org/1999/xlink" x="0px" y="0px"
	 viewBox="0 0 792 612" style="enable-background:new 0 0 792 612;" xml:space="preserve">
<style type="text/css">
	.st0{fill:#414042;}
	.st1{fill:#44ABC5;}
</style>
<g>
	<path class="st0" d="M393,295.6h3.9l4.9,15.3l5.1-15.4h3.1l5.1,15.4l4.9-15.3h3.8l-7.2,20.8h-3.1l-5.1-14.8l-5.1,14.8h-3.1
		L393,295.6z"/>
	<path class="st0" d="M427.2,294.9h3.8v3.4h-3.8V294.9z M427.4,300.7h3.6v15.6h-3.6V300.7z"/>
	<path class="st0" d="M433.1,320.9V318c0.4,0.1,0.7,0.1,1,0.1c1,0,1.7-0.5,1.7-1.9v-15.6h3.6v15.8c0,3.2-1.6,4.6-4.5,4.6
		C434.1,321.1,433.7,321,433.1,320.9z M435.6,294.9h3.8v3.4h-3.8V294.9z"/>
	<path class="st0" d="M444,300.7h3.6v2.4c1-1.4,2.4-2.7,4.8-2.7c2.2,0,3.8,1.1,4.6,2.7c1.3-1.7,2.9-2.7,5.3-2.7c3.4,0,5.5,2.2,5.5,6
		v9.9h-3.6v-8.8c0-2.5-1.2-3.8-3.2-3.8c-1.9,0-3.3,1.4-3.3,3.9v8.8h-3.6v-8.9c0-2.4-1.2-3.8-3.2-3.8c-2,0-3.3,1.5-3.3,3.9v8.8H444
		V300.7z"/>
	<path class="st0" d="M471.2,308.5L471.2,308.5c0-4.5,3.5-8.2,8.3-8.2c4.8,0,8.3,3.6,8.3,8.1v0.1c0,4.4-3.5,8.1-8.3,8.1
		C474.7,316.6,471.2,313,471.2,308.5z M484.2,308.5L484.2,308.5c0-2.8-2-5.1-4.8-5.1c-2.9,0-4.7,2.2-4.7,5v0.1c0,2.7,2,5,4.7,5
		C482.4,313.5,484.2,311.2,484.2,308.5z"/>
</g>
<g>
	<path class="st1" d="M345.1,327.1c0.1,0.6,0.3,1.2,0.5,1.7L345.1,327.1z"/>
	<path class="st1" d="M351.7,276.3c-0.4-0.5-1-0.9-1.7-0.9h-44.6c-0.7,0-1.3,0.3-1.6,0.9c-0.4,0.5-0.5,1.2-0.2,1.8l21.9,57.5
		c0.3,0.8,1,1.3,1.9,1.3c0,0,0,0,0,0c0.8,0,1.6-0.5,1.9-1.3l22.8-57.5C352.1,277.5,352,276.8,351.7,276.3z"/>
	<path class="st1" d="M374.1,276.3c-0.4-0.5-1-0.9-1.7-0.9H362c-0.8,0-1.6,0.5-1.9,1.3l-13.9,36.7l0,0c0,0-2.7,7.2-1.1,13.7l0.5,1.7
		c0,0,0,0,0,0l2.1,6.7c0.3,0.8,1,1.4,1.8,1.4c0,0,0,0,0.1,0c0.8,0,1.6-0.5,1.9-1.3l22.8-57.5C374.5,277.5,374.4,276.8,374.1,276.3z"
		/>
</g>
</svg>
